# xmcd CD database file
#
# Track frame offsets:
#	150
#	21100
#	39672
#	69579
#	88472
#	103051
#	131530
#	152491
#	172580
#	187723
#	202831
#	228762
#	245251
#	260223
#	274495
#	301308
#	316983
#
# Disc length: 4439 seconds
#
# Revision: 0
# Processed by: cddbd v1.5.2PL0 Copyright (c) Steve Scherf et al.
# Submitted via: CDex 1.70beta2
#
DISCID=de115511
DTITLE=The Bourbon Street Stompers - Those Struttin' Syncopators
DYEAR=2003
DGENRE=Jazz
TTITLE0=01 - Sugarfoot Stomp
TTITLE1=02 - Cushion Foot Stomp
TTITLE2=03 - Everybody Loves My Baby
TTITLE3=04 - San
TTITLE4=05 - Snake Rag
TTITLE5=06 - Georgia On My Mind
TTITLE6=07 - After You've Gone
TTITLE7=08 - Doctor Jazz
TTITLE8=09 - Potato Head Blues
TTITLE9=10 - Perdido Street Blues
TTITLE10=11 - Cakewalking Babies From Home
TTITLE11=12 - The Eel
TTITLE12=13 - Gatemouth
TTITLE13=14 - Cornet Shop Suey
TTITLE14=15 - Makin'  Whoopee
TTITLE15=16 - Black Bottom Stomp
TTITLE16=17 - Saturday Night Function
EXTD=YEAR: 2003
EXTT0=
EXTT1=
EXTT2=
EXTT3=
EXTT4=
EXTT5=
EXTT6=
EXTT7=
EXTT8=
EXTT9=
EXTT10=
EXTT11=
EXTT12=
EXTT13=
EXTT14=
EXTT15=
EXTT16=
PLAYORDER=
